<svg xmlns="http://www.w3.org/2000/svg" width="60" height="60" viewBox="0 0 32 32" fill="none" stroke="#e6ac3f" stroke-width="1.5">
  <path d="M12 5.5C9.2 5.5 7 7.6 7 10.2c0 .5.1 1 .2 1.5C5.9 12.5 5 13.9 5 15.5c0 1.3.6 2.5 1.6 3.3-.2.5-.3 1-.3 1.6 0 2.4 2 4.3 4.6 4.3.7 0 1.4-.2 2-.5.5 1.1 1.7 1.8 3.1 1.8V5.9c-1-.3-2.6-.4-4-.4Z" stroke-linejoin="round"/>
  <path d="M20 5.5c2.8 0 5 2.1 5 4.7 0 .5-.1 1-.2 1.5 1.3.8 2.2 2.2 2.2 3.8 0 1.3-.6 2.5-1.6 3.3.2.5.3 1 .3 1.6 0 2.4-2 4.3-4.6 4.3-.7 0-1.4-.2-2-.5-.5 1.1-1.7 1.8-3.1 1.8" stroke-linejoin="round"/>
  <path d="M16 6v20" stroke-linecap="round" opacity="0.6"/>
</svg>
