<svg xmlns="http://www.w3.org/2000/svg" viewBox="0 0 32 32">
  <rect width="32" height="32" rx="8" fill="#ffffff" />
  <g fill="none" stroke="#5b45e4" stroke-width="1.6" stroke-linejoin="round">
    <path d="M12 6.5C9.4 6.5 7.4 8.4 7.4 10.8c0 .4.05.9.15 1.3C6.3 12.8 5.5 14 5.5 15.4c0 1.2.55 2.3 1.5 3-.2.45-.28.95-.28 1.45 0 2.2 1.85 3.95 4.25 3.95.65 0 1.3-.18 1.85-.46.46 1 1.55 1.65 2.85 1.65V6.85c-.92-.28-2.4-.35-3.6-.35Z" />
    <path d="M20 6.5c2.6 0 4.6 1.9 4.6 4.3 0 .4-.05.9-.15 1.3 1.25.7 2.05 1.9 2.05 3.3 0 1.2-.55 2.3-1.5 3 .2.45.28.95.28 1.45 0 2.2-1.85 3.95-4.25 3.95-.65 0-1.3-.18-1.85-.46-.46 1-1.55 1.65-2.85 1.65" />
  </g>
  <path d="M16 7v18" stroke="#f0a63c" stroke-width="1.4" stroke-linecap="round" />
</svg>
